<svg width="168" height="168" viewBox="0 0 168 168" fill="none" xmlns="http://www.w3.org/2000/svg">
<rect width="168" height="168" rx="25" fill="#238287"/>
<line x1="119" y1="47.5" x2="42" y2="47.5" stroke="white" stroke-width="5"/>
<line x1="44.1571" y1="45.0213" x2="43.4999" y2="122.021" stroke="white" stroke-width="5"/>
<line x1="40.9884" y1="119.857" x2="117.99" y2="119.5" stroke="white" stroke-width="5"/>
<path d="M117 74.5L116.999 122.007" stroke="white" stroke-width="5"/>
<path d="M126.25 39.75C127.104 38.8964 128.117 38.2193 129.232 37.7573C130.347 37.2954 131.543 37.0576 132.75 37.0576C133.957 37.0576 135.152 37.2954 136.268 37.7573C137.383 38.2193 138.396 38.8964 139.25 39.75C140.104 40.6036 140.781 41.617 141.243 42.7322C141.705 43.8475 141.942 45.0428 141.942 46.25C141.942 47.4572 141.705 48.6525 141.243 49.7678C140.781 50.8831 140.104 51.8964 139.25 52.75L95.375 96.625L77.5 101.5L82.375 83.625L126.25 39.75Z" stroke="white" stroke-width="4" stroke-linecap="round" stroke-linejoin="round"/>
</svg>
