<svg width="168" height="168" viewBox="0 0 168 168" fill="none" xmlns="http://www.w3.org/2000/svg">
<rect width="168" height="168" rx="25" fill="#238287"/>
<g filter="url(#filter0_d_191_35)">
<rect x="21" y="65" width="38" height="47" rx="3" fill="white" fill-opacity="0.81" shape-rendering="crispEdges"/>
</g>
<line x1="29" y1="81.5" x2="51" y2="81.5" stroke="black"/>
<line x1="29" y1="85.5" x2="51" y2="85.5" stroke="black"/>
<line x1="29" y1="90.5" x2="51" y2="90.5" stroke="black"/>
<line x1="29" y1="94.5" x2="46" y2="94.5" stroke="black"/>
<g filter="url(#filter1_d_191_35)">
<rect x="85" y="75.4971" width="38" height="47" rx="3" transform="rotate(-12.0818 85 75.4971)" fill="white" fill-opacity="0.81" shape-rendering="crispEdges"/>
</g>
<g filter="url(#filter2_d_191_35)">
<rect x="98.498" y="67.8904" width="38" height="47" rx="3" transform="rotate(-4.36216 98.498 67.8904)" fill="white" fill-opacity="0.96" shape-rendering="crispEdges"/>
</g>
<g filter="url(#filter3_d_191_35)">
<rect x="115.02" y="65" width="38" height="47" rx="3" transform="rotate(0.636181 115.02 65)" fill="white"/>
</g>
<line x1="122.498" y1="81.5" x2="144.498" y2="81.5" stroke="black"/>
<line x1="122.498" y1="85.5" x2="144.498" y2="85.5" stroke="black"/>
<line x1="122.498" y1="90.5" x2="144.498" y2="90.5" stroke="black"/>
<line x1="122.498" y1="94.5" x2="139.498" y2="94.5" stroke="black"/>
<path d="M36.5567 50.4789C36.2372 50.9294 36.3436 51.5536 36.7941 51.873C37.2447 52.1924 37.8688 52.0861 38.1882 51.6356L36.5567 50.4789ZM118.626 59.7938L120.59 48.415L109.754 52.4038L118.626 59.7938ZM38.1882 51.6356C45.6112 41.165 53.4215 35.012 61.0848 31.8696C68.7436 28.7289 76.3279 28.5651 83.357 30.1921C97.4668 33.4579 109.299 43.9366 114.689 51.9095L116.346 50.7893C110.739 42.4952 98.5135 31.6473 83.808 28.2436C76.4294 26.5358 68.4165 26.7014 60.326 30.0191C52.2401 33.3349 44.1493 39.769 36.5567 50.4789L38.1882 51.6356Z" fill="white"/>
<defs>
<filter id="filter0_d_191_35" x="17" y="65" width="46" height="55" filterUnits="userSpaceOnUse" color-interpolation-filters="sRGB">
<feFlood flood-opacity="0" result="BackgroundImageFix"/>
<feColorMatrix in="SourceAlpha" type="matrix" values="0 0 0 0 0 0 0 0 0 0 0 0 0 0 0 0 0 0 127 0" result="hardAlpha"/>
<feOffset dy="4"/>
<feGaussianBlur stdDeviation="2"/>
<feComposite in2="hardAlpha" operator="out"/>
<feColorMatrix type="matrix" values="0 0 0 0 0 0 0 0 0 0 0 0 0 0 0 0 0 0 0.25 0"/>
<feBlend mode="normal" in2="BackgroundImageFix" result="effect1_dropShadow_191_35"/>
<feBlend mode="normal" in="SourceGraphic" in2="effect1_dropShadow_191_35" result="shape"/>
</filter>
<filter id="filter1_d_191_35" x="81.561" y="68.1042" width="53.874" height="60.791" filterUnits="userSpaceOnUse" color-interpolation-filters="sRGB">
<feFlood flood-opacity="0" result="BackgroundImageFix"/>
<feColorMatrix in="SourceAlpha" type="matrix" values="0 0 0 0 0 0 0 0 0 0 0 0 0 0 0 0 0 0 127 0" result="hardAlpha"/>
<feOffset dy="4"/>
<feGaussianBlur stdDeviation="2"/>
<feComposite in2="hardAlpha" operator="out"/>
<feColorMatrix type="matrix" values="0 0 0 0 0 0 0 0 0 0 0 0 0 0 0 0 0 0 0.25 0"/>
<feBlend mode="normal" in2="BackgroundImageFix" result="effect1_dropShadow_191_35"/>
<feBlend mode="normal" in="SourceGraphic" in2="effect1_dropShadow_191_35" result="shape"/>
</filter>
<filter id="filter2_d_191_35" x="94.7173" y="65.2195" width="49.0264" height="57.3154" filterUnits="userSpaceOnUse" color-interpolation-filters="sRGB">
<feFlood flood-opacity="0" result="BackgroundImageFix"/>
<feColorMatrix in="SourceAlpha" type="matrix" values="0 0 0 0 0 0 0 0 0 0 0 0 0 0 0 0 0 0 127 0" result="hardAlpha"/>
<feOffset dy="4"/>
<feGaussianBlur stdDeviation="2"/>
<feComposite in2="hardAlpha" operator="out"/>
<feColorMatrix type="matrix" values="0 0 0 0 0 0 0 0 0 0 0 0 0 0 0 0 0 0 0.25 0"/>
<feBlend mode="normal" in2="BackgroundImageFix" result="effect1_dropShadow_191_35"/>
<feBlend mode="normal" in="SourceGraphic" in2="effect1_dropShadow_191_35" result="shape"/>
</filter>
<filter id="filter3_d_191_35" x="110.531" y="65.0332" width="46.4531" height="55.3528" filterUnits="userSpaceOnUse" color-interpolation-filters="sRGB">
<feFlood flood-opacity="0" result="BackgroundImageFix"/>
<feColorMatrix in="SourceAlpha" type="matrix" values="0 0 0 0 0 0 0 0 0 0 0 0 0 0 0 0 0 0 127 0" result="hardAlpha"/>
<feOffset dy="4"/>
<feGaussianBlur stdDeviation="2"/>
<feComposite in2="hardAlpha" operator="out"/>
<feColorMatrix type="matrix" values="0 0 0 0 0 0 0 0 0 0 0 0 0 0 0 0 0 0 0.25 0"/>
<feBlend mode="normal" in2="BackgroundImageFix" result="effect1_dropShadow_191_35"/>
<feBlend mode="normal" in="SourceGraphic" in2="effect1_dropShadow_191_35" result="shape"/>
</filter>
</defs>
</svg>
