<svg width="168" height="168" viewBox="0 0 168 168" fill="none" xmlns="http://www.w3.org/2000/svg">
<rect width="112" height="112" rx="25" fill="#873323"/>
<rect x="168" y="168" width="112" height="112" rx="25" transform="rotate(-180 168 168)" fill="url(#paint0_radial_200_64)"/>
<path d="M10.4432 63V28.0909H23.5341C26.2159 28.0909 28.4659 28.5909 30.2841 29.5909C32.1136 30.5909 33.4943 31.9659 34.4261 33.7159C35.3693 35.4545 35.8409 37.4318 35.8409 39.6477C35.8409 41.8864 35.3693 43.875 34.4261 45.6136C33.483 47.3523 32.0909 48.7216 30.25 49.7216C28.4091 50.7102 26.142 51.2045 23.4489 51.2045H14.7727V46.0057H22.5966C24.1648 46.0057 25.4489 45.733 26.4489 45.1875C27.4489 44.642 28.1875 43.892 28.6648 42.9375C29.1534 41.983 29.3977 40.8864 29.3977 39.6477C29.3977 38.4091 29.1534 37.3182 28.6648 36.375C28.1875 35.4318 27.4432 34.6989 26.4318 34.1761C25.4318 33.642 24.142 33.375 22.5625 33.375H16.767V63H10.4432ZM53.1634 63H41.3338V28.0909H53.402C56.8679 28.0909 59.8452 28.7898 62.3338 30.1875C64.8338 31.5739 66.7543 33.5682 68.0952 36.1705C69.4361 38.7727 70.1065 41.8864 70.1065 45.5114C70.1065 49.1477 69.4304 52.2727 68.0781 54.8864C66.7372 57.5 64.7997 59.5057 62.2656 60.9034C59.7429 62.3011 56.7088 63 53.1634 63ZM47.6577 57.5284H52.8565C55.2884 57.5284 57.3168 57.0852 58.9418 56.1989C60.5668 55.3011 61.7884 53.9659 62.6065 52.1932C63.4247 50.4091 63.8338 48.1818 63.8338 45.5114C63.8338 42.8409 63.4247 40.625 62.6065 38.8636C61.7884 37.0909 60.5781 35.767 58.9759 34.892C57.3849 34.0057 55.4077 33.5625 53.044 33.5625H47.6577V57.5284ZM76.1151 63V28.0909H98.4787V33.392H82.4389V42.8693H96.9446V48.1705H82.4389V63H76.1151Z" fill="white"/>
<path d="M79.1328 77.0089C78.5854 76.9355 78.0822 77.3198 78.0089 77.8672L76.8136 86.7875C76.7402 87.3348 77.1245 87.8381 77.6719 87.9114C78.2193 87.9848 78.7225 87.6005 78.7959 87.0531L79.8584 79.1239L87.7875 80.1865C88.3349 80.2598 88.8381 79.8755 88.9114 79.3281C88.9848 78.7807 88.6005 78.2775 88.0531 78.2042L79.1328 77.0089ZM92.598 94.1585L79.7948 77.3931L78.2053 78.6069L91.0085 95.3723L92.598 94.1585Z" fill="white"/>
<line x1="10" y1="92.4103" x2="46.2817" y2="92.4103" stroke="white" stroke-width="3"/>
<line x1="10" y1="86.5" x2="56" y2="86.5" stroke="white" stroke-width="3"/>
<path d="M122.299 103.006C119.746 103.006 99.2592 103.11 99.1203 101.701C98.8496 98.9562 99.1203 105.102 99.1203 105.944C99.1203 108.774 99.1203 111.603 99.1203 114.432C99.1203 118.2 98.7618 120.084 101.295 117.515C102.61 116.182 106.508 116.717 108.134 116.717C112.799 116.717 117.529 116.064 122.299 116.064C124.726 116.064 123.844 119.771 123.844 122.267C123.844 125.076 123.444 127.791 123.329 130.428C123.159 134.304 122.299 137.974 122.299 141.854C122.299 143.598 117.553 142.833 116.375 142.833C111.521 142.833 107.216 142.18 102.468 142.18C101.253 142.18 100.212 137.046 100.15 135.651C100.024 132.76 100.15 130.739 100.15 127.816" stroke="white" stroke-width="6" stroke-linecap="square"/>
<defs>
<radialGradient id="paint0_radial_200_64" cx="0" cy="0" r="1" gradientUnits="userSpaceOnUse" gradientTransform="translate(224 224) rotate(90.0002) scale(130 292.529)">
<stop stop-color="#F86C46"/>
<stop offset="1" stop-color="#8C2002"/>
</radialGradient>
</defs>
</svg>
