<svg width="168" height="168" viewBox="0 0 168 168" fill="none" xmlns="http://www.w3.org/2000/svg">
<rect width="112" height="112" rx="25" fill="#238287"/>
<rect x="168" y="168" width="112" height="112" rx="25" transform="rotate(-180 168 168)" fill="#238287"/>
<path d="M73.9009 77.4009C75.8338 77.4008 77.4008 75.8338 77.4009 73.9009L77.4009 42.4009C77.4009 40.4679 75.8338 38.9009 73.9009 38.9009C71.9679 38.9009 70.4009 40.4679 70.4009 42.4009L70.4009 70.4009L42.4009 70.4009C40.4679 70.4009 38.9009 71.9679 38.9009 73.9009C38.9009 75.8338 40.4679 77.4009 42.4009 77.4009L73.9009 77.4009ZM18.5251 23.4749L71.426 76.3757L76.3757 71.426L23.4749 18.5251L18.5251 23.4749Z" fill="white"/>
<path d="M94 90.5C92.067 90.5 90.5 92.067 90.5 94L90.5 125.5C90.5 127.433 92.067 129 94 129C95.933 129 97.5 127.433 97.5 125.5L97.5 97.5L125.5 97.5C127.433 97.5 129 95.933 129 94C129 92.067 127.433 90.5 125.5 90.5L94 90.5ZM149.376 144.426L96.4749 91.5251L91.5251 96.4749L144.426 149.376L149.376 144.426Z" fill="white"/>
<line x1="56.3536" y1="98.6464" x2="68.8635" y2="111.156" stroke="#C8C8C8"/>
<line x1="69.3536" y1="85.6464" x2="81.8635" y2="98.1564" stroke="#C8C8C8"/>
<line x1="82.3536" y1="70.6464" x2="94.8635" y2="83.1564" stroke="#C8C8C8"/>
<line x1="94.3536" y1="57.6464" x2="106.864" y2="70.1564" stroke="#C8C8C8"/>
</svg>
