<svg width="168" height="168" viewBox="0 0 168 168" fill="none" xmlns="http://www.w3.org/2000/svg">
<rect width="168" height="168" rx="25" fill="#238287"/>
<line x1="13" y1="82.5" x2="34" y2="82.5" stroke="white" stroke-width="3"/>
<line x1="139" y1="82.5" x2="155" y2="82.5" stroke="white" stroke-width="3"/>
<line x1="13" y1="62.5" x2="34" y2="62.5" stroke="white" stroke-width="3"/>
<line x1="139" y1="62.5" x2="155" y2="62.5" stroke="white" stroke-width="3"/>
<line x1="13" y1="107.5" x2="34" y2="107.5" stroke="white" stroke-width="3"/>
<line x1="139" y1="107.5" x2="155" y2="107.5" stroke="white" stroke-width="3"/>
<line x1="12.9894" y1="133.5" x2="154.989" y2="132.5" stroke="white" stroke-width="3"/>
<line x1="12.9894" y1="39.5" x2="154.989" y2="38.5" stroke="white" stroke-width="3"/>
<rect x="34.5" y="51.5" width="104" height="68" stroke="#FFFBFB"/>
<path d="M69.1051 85.5455C69.1051 89.3068 68.4006 92.5284 66.9915 95.2102C65.5938 97.8807 63.6847 99.9261 61.2642 101.347C58.8551 102.767 56.1222 103.477 53.0653 103.477C50.0085 103.477 47.2699 102.767 44.8494 101.347C42.4403 99.9148 40.5313 97.8636 39.1222 95.1932C37.7244 92.5114 37.0256 89.2955 37.0256 85.5455C37.0256 81.7841 37.7244 78.5682 39.1222 75.8977C40.5313 73.2159 42.4403 71.1648 44.8494 69.7443C47.2699 68.3239 50.0085 67.6136 53.0653 67.6136C56.1222 67.6136 58.8551 68.3239 61.2642 69.7443C63.6847 71.1648 65.5938 73.2159 66.9915 75.8977C68.4006 78.5682 69.1051 81.7841 69.1051 85.5455ZM62.7472 85.5455C62.7472 82.8977 62.3324 80.6648 61.5028 78.8466C60.6847 77.017 59.5483 75.6364 58.0938 74.7045C56.6392 73.7614 54.9631 73.2898 53.0653 73.2898C51.1676 73.2898 49.4915 73.7614 48.0369 74.7045C46.5824 75.6364 45.4403 77.017 44.6108 78.8466C43.7926 80.6648 43.3835 82.8977 43.3835 85.5455C43.3835 88.1932 43.7926 90.4318 44.6108 92.2614C45.4403 94.0795 46.5824 95.4602 48.0369 96.4034C49.4915 97.3352 51.1676 97.8011 53.0653 97.8011C54.9631 97.8011 56.6392 97.3352 58.0938 96.4034C59.5483 95.4602 60.6847 94.0795 61.5028 92.2614C62.3324 90.4318 62.7472 88.1932 62.7472 85.5455ZM104.964 79.8693H98.5895C98.4077 78.8239 98.0724 77.8977 97.5838 77.0909C97.0952 76.2727 96.4872 75.5795 95.7599 75.0114C95.0327 74.4432 94.2031 74.017 93.2713 73.733C92.3509 73.4375 91.3565 73.2898 90.2884 73.2898C88.3906 73.2898 86.7088 73.767 85.2429 74.7216C83.777 75.6648 82.6293 77.0511 81.7997 78.8807C80.9702 80.6989 80.5554 82.9205 80.5554 85.5455C80.5554 88.2159 80.9702 90.4659 81.7997 92.2955C82.6406 94.1136 83.7884 95.4886 85.2429 96.4205C86.7088 97.3409 88.3849 97.8011 90.2713 97.8011C91.3168 97.8011 92.294 97.6648 93.2031 97.392C94.1236 97.108 94.9474 96.6932 95.6747 96.1477C96.4134 95.6023 97.0327 94.9318 97.5327 94.1364C98.044 93.3409 98.3963 92.4318 98.5895 91.4091L104.964 91.4432C104.726 93.1023 104.209 94.6591 103.413 96.1136C102.629 97.5682 101.601 98.8523 100.328 99.9659C99.0554 101.068 97.5668 101.932 95.8622 102.557C94.1577 103.17 92.2656 103.477 90.1861 103.477C87.1179 103.477 84.3793 102.767 81.9702 101.347C79.5611 99.9261 77.6634 97.875 76.277 95.1932C74.8906 92.5114 74.1974 89.2955 74.1974 85.5455C74.1974 81.7841 74.8963 78.5682 76.294 75.8977C77.6918 73.2159 79.5952 71.1648 82.0043 69.7443C84.4134 68.3239 87.1406 67.6136 90.1861 67.6136C92.1293 67.6136 93.9361 67.8864 95.6065 68.4318C97.277 68.9773 98.7656 69.7784 100.072 70.8352C101.379 71.8807 102.453 73.1648 103.294 74.6875C104.146 76.1989 104.703 77.9261 104.964 79.8693ZM110.756 103V68.0909H123.847C126.528 68.0909 128.778 68.5568 130.597 69.4886C132.426 70.4205 133.807 71.7273 134.739 73.4091C135.682 75.0795 136.153 77.0284 136.153 79.2557C136.153 81.4943 135.676 83.4375 134.722 85.0852C133.778 86.7216 132.386 87.9886 130.545 88.8864C128.705 89.7727 126.443 90.2159 123.761 90.2159H114.438V84.9659H122.909C124.477 84.9659 125.761 84.75 126.761 84.3182C127.761 83.875 128.5 83.233 128.977 82.392C129.466 81.5398 129.71 80.4943 129.71 79.2557C129.71 78.017 129.466 76.9602 128.977 76.0852C128.489 75.1989 127.744 74.5284 126.744 74.0739C125.744 73.608 124.455 73.375 122.875 73.375H117.08V103H110.756ZM128.79 87.1818L137.432 103H130.375L121.886 87.1818H128.79Z" fill="white"/>
<circle cx="137.5" cy="52.5" r="3.5" fill="#D9D9D9"/>
<circle cx="36.5" cy="52.5" r="3.5" fill="#D9D9D9"/>
<circle cx="36.5" cy="118.5" r="3.5" fill="#D9D9D9"/>
<circle cx="137.5" cy="118.5" r="3.5" fill="#D9D9D9"/>
</svg>
