<svg width="168" height="168" viewBox="0 0 168 168" fill="none" xmlns="http://www.w3.org/2000/svg">
<rect width="78" height="78" rx="10" fill="#238287"/>
<rect x="90" width="78" height="78" rx="10" fill="#238287"/>
<rect x="90" y="90" width="78" height="78" rx="10" fill="#238287"/>
<rect y="90" width="78" height="78" rx="10" fill="#238287"/>
<path d="M42.2386 24.9091V54H38.7159V28.6023H38.5455L31.4432 33.3182V29.7386L38.7159 24.9091H42.2386Z" fill="white"/>
<path d="M122.011 54V51.4432L131.614 40.9318C132.741 39.7008 133.669 38.6307 134.398 37.7216C135.127 36.803 135.667 35.9413 136.017 35.1364C136.377 34.322 136.557 33.4697 136.557 32.5795C136.557 31.5568 136.311 30.6714 135.818 29.9233C135.335 29.1752 134.672 28.5975 133.83 28.1903C132.987 27.7831 132.04 27.5795 130.989 27.5795C129.871 27.5795 128.896 27.8116 128.062 28.2756C127.239 28.7301 126.599 29.3693 126.145 30.1932C125.7 31.017 125.477 31.983 125.477 33.0909H122.125C122.125 31.3864 122.518 29.8902 123.304 28.6023C124.09 27.3144 125.16 26.3106 126.514 25.5909C127.878 24.8712 129.407 24.5114 131.102 24.5114C132.807 24.5114 134.317 24.8712 135.634 25.5909C136.95 26.3106 137.982 27.2812 138.73 28.5028C139.478 29.7244 139.852 31.0833 139.852 32.5795C139.852 33.6496 139.658 34.696 139.27 35.7188C138.891 36.732 138.228 37.8636 137.281 39.1136C136.344 40.3542 135.042 41.8693 133.375 43.6591L126.841 50.6477V50.875H140.364V54H122.011Z" fill="white"/>
<path d="M38.8409 144.398C36.9659 144.398 35.2945 144.076 33.8267 143.432C32.3684 142.788 31.2083 141.893 30.3466 140.747C29.4943 139.592 29.0303 138.252 28.9545 136.727H32.5341C32.6098 137.665 32.9318 138.474 33.5 139.156C34.0682 139.829 34.8116 140.349 35.7301 140.719C36.6487 141.088 37.6667 141.273 38.7841 141.273C40.0341 141.273 41.142 141.055 42.108 140.619C43.0739 140.184 43.8314 139.578 44.3807 138.801C44.9299 138.025 45.2045 137.125 45.2045 136.102C45.2045 135.032 44.9394 134.09 44.4091 133.276C43.8788 132.452 43.1023 131.808 42.0795 131.344C41.0568 130.88 39.8068 130.648 38.3295 130.648H36V127.523H38.3295C39.4848 127.523 40.4981 127.314 41.3693 126.898C42.25 126.481 42.9366 125.894 43.429 125.136C43.9309 124.379 44.1818 123.489 44.1818 122.466C44.1818 121.481 43.964 120.624 43.5284 119.895C43.0928 119.166 42.4773 118.598 41.6818 118.19C40.8958 117.783 39.9678 117.58 38.8977 117.58C37.8939 117.58 36.947 117.764 36.0568 118.134C35.1761 118.493 34.4564 119.019 33.8977 119.71C33.339 120.392 33.036 121.216 32.9886 122.182H29.5795C29.6364 120.657 30.0956 119.322 30.9574 118.176C31.8191 117.021 32.946 116.121 34.3381 115.477C35.7396 114.833 37.2784 114.511 38.9545 114.511C40.7538 114.511 42.2973 114.876 43.5852 115.605C44.8731 116.325 45.8627 117.277 46.554 118.46C47.2453 119.644 47.5909 120.922 47.5909 122.295C47.5909 123.934 47.16 125.33 46.2983 126.486C45.446 127.641 44.286 128.441 42.8182 128.886V129.114C44.6553 129.417 46.09 130.198 47.1222 131.457C48.1544 132.707 48.6705 134.256 48.6705 136.102C48.6705 137.684 48.2396 139.104 47.3778 140.364C46.5256 141.614 45.3608 142.598 43.8835 143.318C42.4063 144.038 40.7254 144.398 38.8409 144.398Z" fill="white"/>
<path d="M118.33 138.034V135.136L131.114 114.909H133.216V119.398H131.795L122.136 134.682V134.909H139.352V138.034H118.33ZM132.023 144V137.153V135.804V114.909H135.375V144H132.023Z" fill="white"/>
</svg>
