<svg width="168" height="168" viewBox="0 0 168 168" fill="none" xmlns="http://www.w3.org/2000/svg">
<rect width="168" height="168" rx="25" fill="#238287"/>
<circle cx="84" cy="97" r="2" fill="white"/>
<path d="M67.75 78.75V65.75C67.75 61.4402 69.462 57.307 72.5095 54.2595C75.557 51.212 79.6902 49.5 84 49.5C88.3098 49.5 92.443 51.212 95.4905 54.2595C98.538 57.307 100.25 61.4402 100.25 65.75V78.75M61.25 78.75H106.75C110.34 78.75 113.25 81.6601 113.25 85.25V108C113.25 111.59 110.34 114.5 106.75 114.5H61.25C57.6601 114.5 54.75 111.59 54.75 108V85.25C54.75 81.6601 57.6601 78.75 61.25 78.75Z" stroke="#FFFCFC" stroke-width="5" stroke-linecap="round" stroke-linejoin="round"/>
</svg>
