<svg width="168" height="168" viewBox="0 0 168 168" fill="none" xmlns="http://www.w3.org/2000/svg">
<rect width="112" height="112" rx="25" fill="#873323"/>
<path d="M168 143C168 156.807 156.807 168 143 168L80.9995 168C67.1924 168 55.9995 156.807 55.9995 143L55.9995 81C55.9995 67.1929 67.1924 56 80.9995 56L143 56C156.807 56 168 67.1929 168 81L168 143Z" fill="url(#paint0_linear_200_57)"/>
<path d="M10.4432 63V28.0909H23.5341C26.2159 28.0909 28.4659 28.5909 30.2841 29.5909C32.1136 30.5909 33.4943 31.9659 34.4261 33.7159C35.3693 35.4545 35.8409 37.4318 35.8409 39.6477C35.8409 41.8864 35.3693 43.875 34.4261 45.6136C33.483 47.3523 32.0909 48.7216 30.25 49.7216C28.4091 50.7102 26.142 51.2045 23.4489 51.2045H14.7727V46.0057H22.5966C24.1648 46.0057 25.4489 45.733 26.4489 45.1875C27.4489 44.642 28.1875 43.892 28.6648 42.9375C29.1534 41.983 29.3977 40.8864 29.3977 39.6477C29.3977 38.4091 29.1534 37.3182 28.6648 36.375C28.1875 35.4318 27.4432 34.6989 26.4318 34.1761C25.4318 33.642 24.142 33.375 22.5625 33.375H16.767V63H10.4432ZM53.1634 63H41.3338V28.0909H53.402C56.8679 28.0909 59.8452 28.7898 62.3338 30.1875C64.8338 31.5739 66.7543 33.5682 68.0952 36.1705C69.4361 38.7727 70.1065 41.8864 70.1065 45.5114C70.1065 49.1477 69.4304 52.2727 68.0781 54.8864C66.7372 57.5 64.7997 59.5057 62.2656 60.9034C59.7429 62.3011 56.7088 63 53.1634 63ZM47.6577 57.5284H52.8565C55.2884 57.5284 57.3168 57.0852 58.9418 56.1989C60.5668 55.3011 61.7884 53.9659 62.6065 52.1932C63.4247 50.4091 63.8338 48.1818 63.8338 45.5114C63.8338 42.8409 63.4247 40.625 62.6065 38.8636C61.7884 37.0909 60.5781 35.767 58.9759 34.892C57.3849 34.0057 55.4077 33.5625 53.044 33.5625H47.6577V57.5284ZM76.1151 63V28.0909H98.4787V33.392H82.4389V42.8693H96.9446V48.1705H82.4389V63H76.1151Z" fill="white"/>
<path d="M81.0227 131V107.727H90.2045C91.9697 107.727 93.4735 108.064 94.7159 108.739C95.9583 109.405 96.9053 110.333 97.5568 111.523C98.2159 112.705 98.5455 114.068 98.5455 115.614C98.5455 117.159 98.2121 118.523 97.5455 119.705C96.8788 120.886 95.9129 121.807 94.6477 122.466C93.3902 123.125 91.8674 123.455 90.0795 123.455H84.2273V119.511H89.2841C90.2311 119.511 91.0114 119.348 91.625 119.023C92.2462 118.689 92.7083 118.231 93.0114 117.648C93.322 117.057 93.4773 116.379 93.4773 115.614C93.4773 114.841 93.322 114.167 93.0114 113.591C92.7083 113.008 92.2462 112.557 91.625 112.239C91.0038 111.913 90.2159 111.75 89.2614 111.75H85.9432V131H81.0227ZM103.065 131H97.7926L105.827 107.727H112.168L120.19 131H114.918L109.088 113.045H108.906L103.065 131ZM102.736 121.852H115.19V125.693H102.736V121.852ZM142.457 107.727V131H138.207L128.082 116.352H127.912V131H122.991V107.727H127.31L137.355 122.364H137.56V107.727H142.457Z" fill="white"/>
<path d="M81.8965 89.2841C82.4402 89.3808 82.9595 89.0185 83.0562 88.4748L84.6334 79.614C84.7302 79.0703 84.3678 78.551 83.8241 78.4543C83.2803 78.3575 82.7611 78.7198 82.6643 79.2636L81.2624 87.1398L73.3862 85.7379C72.8425 85.6411 72.3232 86.0034 72.2265 86.5472C72.1297 87.0909 72.492 87.6101 73.0357 87.7069L81.8965 89.2841ZM69.1799 71.5723L81.2516 88.8718L82.8918 87.7273L70.8201 70.4277L69.1799 71.5723Z" fill="white"/>
<line x1="10" y1="88.4103" x2="46.2817" y2="88.4103" stroke="white" stroke-width="3"/>
<line x1="10" y1="82.5" x2="56" y2="82.5" stroke="white" stroke-width="3"/>
<path d="M65.6193 135.537V152.281H63.6108V135.537H65.6193ZM73.6298 148.92L68.6184 143.909L73.6298 138.898L74.7832 140.041L71.7555 143.069H103.032V144.749H71.7555L74.7832 147.772L73.6298 148.92ZM118.779 143.069V144.749H104.779V143.069H118.779ZM149.931 148.92L148.778 147.772L151.806 144.749H120.529V143.069H151.806L148.778 140.041L149.931 138.898L154.943 143.909L149.931 148.92ZM159.942 135.537V152.281H157.933V135.537H159.942Z" fill="white"/>
<defs>
<linearGradient id="paint0_linear_200_57" x1="168" y1="159" x2="43" y2="103" gradientUnits="userSpaceOnUse">
<stop offset="0.0115999" stop-color="#2688BD"/>
<stop offset="1" stop-color="#6B8896"/>
</linearGradient>
</defs>
</svg>
