<svg width="168" height="168" viewBox="0 0 168 168" fill="none" xmlns="http://www.w3.org/2000/svg">
<rect width="112" height="112" rx="25" fill="#873323"/>
<rect x="168" y="168" width="112" height="112" rx="25" transform="rotate(-180 168 168)" fill="url(#paint0_linear_200_59)"/>
<path d="M10.4432 63V28.0909H23.5341C26.2159 28.0909 28.4659 28.5909 30.2841 29.5909C32.1136 30.5909 33.4943 31.9659 34.4261 33.7159C35.3693 35.4545 35.8409 37.4318 35.8409 39.6477C35.8409 41.8864 35.3693 43.875 34.4261 45.6136C33.483 47.3523 32.0909 48.7216 30.25 49.7216C28.4091 50.7102 26.142 51.2045 23.4489 51.2045H14.7727V46.0057H22.5966C24.1648 46.0057 25.4489 45.733 26.4489 45.1875C27.4489 44.642 28.1875 43.892 28.6648 42.9375C29.1534 41.983 29.3977 40.8864 29.3977 39.6477C29.3977 38.4091 29.1534 37.3182 28.6648 36.375C28.1875 35.4318 27.4432 34.6989 26.4318 34.1761C25.4318 33.642 24.142 33.375 22.5625 33.375H16.767V63H10.4432ZM53.1634 63H41.3338V28.0909H53.402C56.8679 28.0909 59.8452 28.7898 62.3338 30.1875C64.8338 31.5739 66.7543 33.5682 68.0952 36.1705C69.4361 38.7727 70.1065 41.8864 70.1065 45.5114C70.1065 49.1477 69.4304 52.2727 68.0781 54.8864C66.7372 57.5 64.7997 59.5057 62.2656 60.9034C59.7429 62.3011 56.7088 63 53.1634 63ZM47.6577 57.5284H52.8565C55.2884 57.5284 57.3168 57.0852 58.9418 56.1989C60.5668 55.3011 61.7884 53.9659 62.6065 52.1932C63.4247 50.4091 63.8338 48.1818 63.8338 45.5114C63.8338 42.8409 63.4247 40.625 62.6065 38.8636C61.7884 37.0909 60.5781 35.767 58.9759 34.892C57.3849 34.0057 55.4077 33.5625 53.044 33.5625H47.6577V57.5284ZM76.1151 63V28.0909H98.4787V33.392H82.4389V42.8693H96.9446V48.1705H82.4389V63H76.1151Z" fill="white"/>
<path d="M103.727 102.091L111.415 114.875H111.688L119.409 102.091H126.619L115.864 119.545L126.79 137H119.46L111.688 124.301H111.415L103.642 137H96.3466L107.375 119.545L96.483 102.091H103.727Z" fill="white"/>
<path d="M81.8965 89.2841C82.4402 89.3808 82.9595 89.0185 83.0562 88.4748L84.6334 79.614C84.7302 79.0703 84.3678 78.551 83.8241 78.4543C83.2803 78.3575 82.7611 78.7198 82.6643 79.2636L81.2624 87.1398L73.3862 85.7379C72.8425 85.6411 72.3232 86.0034 72.2265 86.5472C72.1297 87.0909 72.492 87.6101 73.0357 87.7069L81.8965 89.2841ZM69.1799 71.5723L81.2516 88.8718L82.8918 87.7273L70.8201 70.4277L69.1799 71.5723Z" fill="white"/>
<line x1="10" y1="88.4103" x2="46.2817" y2="88.4103" stroke="white" stroke-width="3"/>
<line x1="10" y1="82.5" x2="56" y2="82.5" stroke="white" stroke-width="3"/>
<defs>
<linearGradient id="paint0_linear_200_59" x1="190.499" y1="270.5" x2="266.499" y2="177" gradientUnits="userSpaceOnUse">
<stop stop-color="#28B42F"/>
<stop offset="0.272674" stop-color="#1C8021"/>
<stop offset="0.530945" stop-color="#1E6F22"/>
<stop offset="0.666702" stop-color="#1E6D22"/>
<stop offset="1" stop-color="#08210A"/>
</linearGradient>
</defs>
</svg>
