<svg width="168" height="174" viewBox="0 0 168 174" fill="none" xmlns="http://www.w3.org/2000/svg">
<rect width="112" height="112" rx="25" fill="#873323"/>
<path d="M168 143C168 156.807 156.807 168 143 168L80.9995 168C67.1924 168 55.9995 156.807 55.9995 143L55.9995 81C55.9995 67.1929 67.1924 56 80.9995 56L143 56C156.807 56 168 67.1929 168 81L168 143Z" fill="#C5D6E7"/>
<path d="M10.4432 63V28.0909H23.5341C26.2159 28.0909 28.4659 28.5909 30.2841 29.5909C32.1136 30.5909 33.4943 31.9659 34.4261 33.7159C35.3693 35.4545 35.8409 37.4318 35.8409 39.6477C35.8409 41.8864 35.3693 43.875 34.4261 45.6136C33.483 47.3523 32.0909 48.7216 30.25 49.7216C28.4091 50.7102 26.142 51.2045 23.4489 51.2045H14.7727V46.0057H22.5966C24.1648 46.0057 25.4489 45.733 26.4489 45.1875C27.4489 44.642 28.1875 43.892 28.6648 42.9375C29.1534 41.983 29.3977 40.8864 29.3977 39.6477C29.3977 38.4091 29.1534 37.3182 28.6648 36.375C28.1875 35.4318 27.4432 34.6989 26.4318 34.1761C25.4318 33.642 24.142 33.375 22.5625 33.375H16.767V63H10.4432ZM53.1634 63H41.3338V28.0909H53.402C56.8679 28.0909 59.8452 28.7898 62.3338 30.1875C64.8338 31.5739 66.7543 33.5682 68.0952 36.1705C69.4361 38.7727 70.1065 41.8864 70.1065 45.5114C70.1065 49.1477 69.4304 52.2727 68.0781 54.8864C66.7372 57.5 64.7997 59.5057 62.2656 60.9034C59.7429 62.3011 56.7088 63 53.1634 63ZM47.6577 57.5284H52.8565C55.2884 57.5284 57.3168 57.0852 58.9418 56.1989C60.5668 55.3011 61.7884 53.9659 62.6065 52.1932C63.4247 50.4091 63.8338 48.1818 63.8338 45.5114C63.8338 42.8409 63.4247 40.625 62.6065 38.8636C61.7884 37.0909 60.5781 35.767 58.9759 34.892C57.3849 34.0057 55.4077 33.5625 53.044 33.5625H47.6577V57.5284ZM76.1151 63V28.0909H98.4787V33.392H82.4389V42.8693H96.9446V48.1705H82.4389V63H76.1151Z" fill="white"/>
<path d="M84.7181 87.3989C85.2608 87.501 85.7836 87.1437 85.8856 86.6009L87.5489 77.756C87.651 77.2132 87.2937 76.6905 86.7509 76.5884C86.2081 76.4863 85.6854 76.8436 85.5833 77.3864L84.1049 85.2486L76.2427 83.7701C75.6999 83.6681 75.1772 84.0253 75.0751 84.5681C74.973 85.1109 75.3303 85.6336 75.8731 85.7357L84.7181 87.3989ZM72.1744 69.5642L84.0773 86.9804L85.7285 85.8519L73.8256 68.4358L72.1744 69.5642Z" fill="white"/>
<path d="M97 98L129.909 155H64.091L97 98Z" fill="#2E8723"/>
<path d="M134.5 105L160.914 150.75H108.086L134.5 105Z" fill="#36A927"/>
<path d="M119 95C119 98.866 115.866 102 112 102C108.134 102 105 98.866 105 95C105 91.134 108.134 88 112 88C115.866 88 119 91.134 119 95Z" fill="#E39331"/>
<path d="M81.2159 110.091H87.4886V134.636C87.4773 136.886 87 138.824 86.0568 140.449C85.1136 142.062 83.7955 143.307 82.1023 144.182C80.4205 145.045 78.4602 145.477 76.2216 145.477C74.1761 145.477 72.3352 145.114 70.6989 144.386C69.0739 143.648 67.7841 142.557 66.8295 141.114C65.875 139.67 65.3977 137.875 65.3977 135.727H71.6875C71.6989 136.67 71.9034 137.483 72.3011 138.165C72.7102 138.847 73.2727 139.369 73.9886 139.733C74.7045 140.097 75.5284 140.278 76.4602 140.278C77.4716 140.278 78.3295 140.068 79.0341 139.648C79.7386 139.216 80.2727 138.58 80.6364 137.739C81.0114 136.898 81.2045 135.864 81.2159 134.636V110.091ZM94.3494 145V110.091H107.44C110.122 110.091 112.372 110.591 114.19 111.591C116.02 112.591 117.401 113.966 118.332 115.716C119.276 117.455 119.747 119.432 119.747 121.648C119.747 123.886 119.276 125.875 118.332 127.614C117.389 129.352 115.997 130.722 114.156 131.722C112.315 132.71 110.048 133.205 107.355 133.205H98.679V128.006H106.503C108.071 128.006 109.355 127.733 110.355 127.188C111.355 126.642 112.094 125.892 112.571 124.938C113.06 123.983 113.304 122.886 113.304 121.648C113.304 120.409 113.06 119.318 112.571 118.375C112.094 117.432 111.349 116.699 110.338 116.176C109.338 115.642 108.048 115.375 106.469 115.375H100.673V145H94.3494ZM148.626 121.239C148.342 120.318 147.95 119.494 147.45 118.767C146.962 118.028 146.371 117.398 145.678 116.875C144.996 116.352 144.212 115.96 143.325 115.699C142.439 115.426 141.473 115.29 140.428 115.29C138.553 115.29 136.882 115.761 135.416 116.705C133.95 117.648 132.797 119.034 131.956 120.864C131.126 122.682 130.712 124.898 130.712 127.511C130.712 130.148 131.126 132.381 131.956 134.21C132.786 136.04 133.939 137.432 135.416 138.386C136.893 139.33 138.609 139.801 140.564 139.801C142.337 139.801 143.871 139.46 145.166 138.778C146.473 138.097 147.479 137.131 148.183 135.881C148.888 134.619 149.24 133.142 149.24 131.449L150.672 131.67H141.195V126.727H155.359V130.92C155.359 133.909 154.723 136.494 153.45 138.676C152.178 140.858 150.428 142.54 148.2 143.722C145.973 144.892 143.416 145.477 140.53 145.477C137.314 145.477 134.49 144.756 132.058 143.312C129.638 141.858 127.746 139.795 126.382 137.125C125.03 134.443 124.354 131.261 124.354 127.58C124.354 124.761 124.751 122.244 125.547 120.028C126.354 117.812 127.479 115.932 128.922 114.386C130.365 112.83 132.058 111.648 134.001 110.841C135.945 110.023 138.058 109.614 140.342 109.614C142.274 109.614 144.075 109.898 145.746 110.466C147.416 111.023 148.899 111.818 150.195 112.852C151.501 113.886 152.575 115.114 153.416 116.534C154.257 117.955 154.808 119.523 155.07 121.239H148.626Z" fill="white"/>
<line x1="10" y1="86.4103" x2="46.2817" y2="86.4103" stroke="white" stroke-width="3"/>
<line x1="10" y1="80.5" x2="56" y2="80.5" stroke="white" stroke-width="3"/>
</svg>
