<svg width="168" height="168" viewBox="0 0 168 168" fill="none" xmlns="http://www.w3.org/2000/svg">
<rect width="112" height="112" rx="25" fill="#873323"/>
<rect x="168" y="168" width="112" height="112" rx="25" transform="rotate(-180 168 168)" fill="url(#paint0_linear_200_60)"/>
<path d="M72.4432 145V110.091H85.5341C88.2159 110.091 90.4659 110.591 92.2841 111.591C94.1136 112.591 95.4943 113.966 96.4261 115.716C97.3693 117.455 97.8409 119.432 97.8409 121.648C97.8409 123.886 97.3693 125.875 96.4261 127.614C95.483 129.352 94.0909 130.722 92.25 131.722C90.4091 132.71 88.142 133.205 85.4489 133.205H76.7727V128.006H84.5966C86.1648 128.006 87.4489 127.733 88.4489 127.188C89.4489 126.642 90.1875 125.892 90.6648 124.938C91.1534 123.983 91.3977 122.886 91.3977 121.648C91.3977 120.409 91.1534 119.318 90.6648 118.375C90.1875 117.432 89.4432 116.699 88.4318 116.176C87.4318 115.642 86.142 115.375 84.5625 115.375H78.767V145H72.4432ZM103.334 145V110.091H116.425C119.107 110.091 121.357 110.591 123.175 111.591C125.004 112.591 126.385 113.966 127.317 115.716C128.26 117.455 128.732 119.432 128.732 121.648C128.732 123.886 128.26 125.875 127.317 127.614C126.374 129.352 124.982 130.722 123.141 131.722C121.3 132.71 119.033 133.205 116.339 133.205H107.663V128.006H115.487C117.055 128.006 118.339 127.733 119.339 127.188C120.339 126.642 121.078 125.892 121.555 124.938C122.044 123.983 122.288 122.886 122.288 121.648C122.288 120.409 122.044 119.318 121.555 118.375C121.078 117.432 120.334 116.699 119.322 116.176C118.322 115.642 117.033 115.375 115.453 115.375H109.658V145H103.334ZM132.69 115.392V110.091H160.543V115.392H149.753V145H143.48V115.392H132.69Z" fill="white"/>
<path d="M10.4432 63V28.0909H23.5341C26.2159 28.0909 28.4659 28.5909 30.2841 29.5909C32.1136 30.5909 33.4943 31.9659 34.4261 33.7159C35.3693 35.4545 35.8409 37.4318 35.8409 39.6477C35.8409 41.8864 35.3693 43.875 34.4261 45.6136C33.483 47.3523 32.0909 48.7216 30.25 49.7216C28.4091 50.7102 26.142 51.2045 23.4489 51.2045H14.7727V46.0057H22.5966C24.1648 46.0057 25.4489 45.733 26.4489 45.1875C27.4489 44.642 28.1875 43.892 28.6648 42.9375C29.1534 41.983 29.3977 40.8864 29.3977 39.6477C29.3977 38.4091 29.1534 37.3182 28.6648 36.375C28.1875 35.4318 27.4432 34.6989 26.4318 34.1761C25.4318 33.642 24.142 33.375 22.5625 33.375H16.767V63H10.4432ZM53.1634 63H41.3338V28.0909H53.402C56.8679 28.0909 59.8452 28.7898 62.3338 30.1875C64.8338 31.5739 66.7543 33.5682 68.0952 36.1705C69.4361 38.7727 70.1065 41.8864 70.1065 45.5114C70.1065 49.1477 69.4304 52.2727 68.0781 54.8864C66.7372 57.5 64.7997 59.5057 62.2656 60.9034C59.7429 62.3011 56.7088 63 53.1634 63ZM47.6577 57.5284H52.8565C55.2884 57.5284 57.3168 57.0852 58.9418 56.1989C60.5668 55.3011 61.7884 53.9659 62.6065 52.1932C63.4247 50.4091 63.8338 48.1818 63.8338 45.5114C63.8338 42.8409 63.4247 40.625 62.6065 38.8636C61.7884 37.0909 60.5781 35.767 58.9759 34.892C57.3849 34.0057 55.4077 33.5625 53.044 33.5625H47.6577V57.5284ZM76.1151 63V28.0909H98.4787V33.392H82.4389V42.8693H96.9446V48.1705H82.4389V63H76.1151Z" fill="white"/>
<path d="M82.9937 87.8407C83.5321 87.9638 84.0683 87.6271 84.1914 87.0887L86.1974 78.3151C86.3205 77.7767 85.9838 77.2405 85.4454 77.1174C84.907 76.9943 84.3708 77.331 84.2477 77.8693L82.4646 85.6681L74.6659 83.885C74.1275 83.7619 73.5912 84.0986 73.4681 84.637C73.345 85.1754 73.6817 85.7116 74.2201 85.8347L82.9937 87.8407ZM71.1531 69.5317L82.3697 87.3976L84.0635 86.3341L72.8469 68.4683L71.1531 69.5317Z" fill="white"/>
<line x1="9" y1="86.4103" x2="45.2817" y2="86.4103" stroke="white" stroke-width="3"/>
<line x1="9" y1="80.5" x2="55" y2="80.5" stroke="white" stroke-width="3"/>
<defs>
<linearGradient id="paint0_linear_200_60" x1="180.499" y1="280" x2="271.999" y2="177" gradientUnits="userSpaceOnUse">
<stop stop-color="#FF6323"/>
<stop offset="0.360856" stop-color="#D24C15"/>
<stop offset="0.63456" stop-color="#A43F15"/>
<stop offset="1" stop-color="#7B3619"/>
</linearGradient>
</defs>
</svg>
