<svg width="168" height="168" viewBox="0 0 168 168" fill="none" xmlns="http://www.w3.org/2000/svg">
<rect width="112" height="112" rx="25" fill="#873323"/>
<rect x="168" y="168" width="112" height="112" rx="25" transform="rotate(-180 168 168)" fill="#873323"/>
<path d="M10.4432 63V28.0909H23.5341C26.2159 28.0909 28.4659 28.5909 30.2841 29.5909C32.1136 30.5909 33.4943 31.9659 34.4261 33.7159C35.3693 35.4545 35.8409 37.4318 35.8409 39.6477C35.8409 41.8864 35.3693 43.875 34.4261 45.6136C33.483 47.3523 32.0909 48.7216 30.25 49.7216C28.4091 50.7102 26.142 51.2045 23.4489 51.2045H14.7727V46.0057H22.5966C24.1648 46.0057 25.4489 45.733 26.4489 45.1875C27.4489 44.642 28.1875 43.892 28.6648 42.9375C29.1534 41.983 29.3977 40.8864 29.3977 39.6477C29.3977 38.4091 29.1534 37.3182 28.6648 36.375C28.1875 35.4318 27.4432 34.6989 26.4318 34.1761C25.4318 33.642 24.142 33.375 22.5625 33.375H16.767V63H10.4432ZM53.1634 63H41.3338V28.0909H53.402C56.8679 28.0909 59.8452 28.7898 62.3338 30.1875C64.8338 31.5739 66.7543 33.5682 68.0952 36.1705C69.4361 38.7727 70.1065 41.8864 70.1065 45.5114C70.1065 49.1477 69.4304 52.2727 68.0781 54.8864C66.7372 57.5 64.7997 59.5057 62.2656 60.9034C59.7429 62.3011 56.7088 63 53.1634 63ZM47.6577 57.5284H52.8565C55.2884 57.5284 57.3168 57.0852 58.9418 56.1989C60.5668 55.3011 61.7884 53.9659 62.6065 52.1932C63.4247 50.4091 63.8338 48.1818 63.8338 45.5114C63.8338 42.8409 63.4247 40.625 62.6065 38.8636C61.7884 37.0909 60.5781 35.767 58.9759 34.892C57.3849 34.0057 55.4077 33.5625 53.044 33.5625H47.6577V57.5284ZM76.1151 63V28.0909H98.4787V33.392H82.4389V42.8693H96.9446V48.1705H82.4389V63H76.1151Z" fill="white"/>
<path d="M65.0227 131V107.727H74.2045C75.9697 107.727 77.4735 108.064 78.7159 108.739C79.9583 109.405 80.9053 110.333 81.5568 111.523C82.2159 112.705 82.5455 114.068 82.5455 115.614C82.5455 117.159 82.2121 118.523 81.5455 119.705C80.8788 120.886 79.9129 121.807 78.6477 122.466C77.3902 123.125 75.8674 123.455 74.0795 123.455H68.2273V119.511H73.2841C74.2311 119.511 75.0114 119.348 75.625 119.023C76.2462 118.689 76.7083 118.231 77.0114 117.648C77.322 117.057 77.4773 116.379 77.4773 115.614C77.4773 114.841 77.322 114.167 77.0114 113.591C76.7083 113.008 76.2462 112.557 75.625 112.239C75.0038 111.913 74.2159 111.75 73.2614 111.75H69.9432V131H65.0227ZM93.9915 131H85.7415V107.727H94.0597C96.4006 107.727 98.4157 108.193 100.105 109.125C101.795 110.049 103.094 111.379 104.003 113.114C104.92 114.848 105.378 116.924 105.378 119.341C105.378 121.765 104.92 123.848 104.003 125.591C103.094 127.333 101.787 128.67 100.082 129.602C98.3854 130.534 96.3551 131 93.9915 131ZM90.6619 126.784H93.7869C95.2415 126.784 96.465 126.527 97.4574 126.011C98.4574 125.489 99.2074 124.682 99.7074 123.591C100.215 122.492 100.469 121.076 100.469 119.341C100.469 117.621 100.215 116.216 99.7074 115.125C99.2074 114.034 98.4612 113.231 97.4688 112.716C96.4763 112.201 95.2528 111.943 93.7983 111.943H90.6619V126.784ZM109.023 131V107.727H124.432V111.784H113.943V117.33H123.409V121.386H113.943V131H109.023ZM137.787 106.636L130.287 134.5H126.116L133.616 106.636H137.787ZM144.222 131H138.949L146.983 107.727H153.324L161.347 131H156.074L150.244 113.045H150.062L144.222 131ZM143.892 121.852H156.347V125.693H143.892V121.852Z" fill="white"/>
<path d="M81.8965 89.2841C82.4402 89.3808 82.9595 89.0185 83.0562 88.4748L84.6334 79.614C84.7302 79.0703 84.3678 78.551 83.8241 78.4543C83.2803 78.3575 82.7611 78.7198 82.6643 79.2636L81.2624 87.1398L73.3862 85.7379C72.8425 85.6411 72.3232 86.0034 72.2265 86.5472C72.1297 87.0909 72.492 87.6101 73.0357 87.7069L81.8965 89.2841ZM69.1799 71.5723L81.2516 88.8718L82.8918 87.7273L70.8201 70.4277L69.1799 71.5723Z" fill="white"/>
<line x1="10" y1="88.4103" x2="46.2817" y2="88.4103" stroke="white" stroke-width="3"/>
<line x1="10" y1="82.5" x2="56" y2="82.5" stroke="white" stroke-width="3"/>
<line x1="78" y1="148.5" x2="131.634" y2="148.5" stroke="white" stroke-width="3"/>
<line x1="78" y1="142.5" x2="146" y2="142.5" stroke="white" stroke-width="3"/>
</svg>
