<svg width="168" height="168" viewBox="0 0 168 168" fill="none" xmlns="http://www.w3.org/2000/svg">
<rect width="168" height="168" rx="25" fill="#238287"/>
<path d="M120.608 70.7198C121.7 70.8817 122.717 70.1272 122.879 69.0346L125.518 51.229C125.68 50.1364 124.925 49.1194 123.833 48.9574C122.74 48.7955 121.723 49.55 121.561 50.6427L119.216 66.4698L103.389 64.1245C102.296 63.9625 101.279 64.717 101.117 65.8097C100.955 66.9023 101.71 67.9193 102.802 68.0812L120.608 70.7198ZM46.6546 69.8649C55.5441 56.773 64.4715 50.4689 72.7079 48.1295C80.9396 45.7915 88.7927 47.3252 95.7128 50.5249C102.652 53.7332 108.553 58.5752 112.746 62.6617C114.835 64.6978 116.483 66.5291 117.604 67.8468C118.165 68.5052 118.593 69.0343 118.878 69.3952C119.021 69.5756 119.128 69.7139 119.198 69.8052C119.233 69.8508 119.258 69.8847 119.275 69.9062C119.283 69.917 119.288 69.9246 119.292 69.9291C119.293 69.9314 119.295 69.9328 119.295 69.9335C119.295 69.9338 119.295 69.9337 119.295 69.9339C119.295 69.9335 119.295 69.933 120.901 68.7414C122.507 67.5498 122.507 67.5488 122.506 67.5477C122.505 67.5471 122.504 67.5457 122.503 67.5444C122.501 67.5419 122.499 67.5385 122.496 67.5343C122.489 67.5259 122.481 67.5143 122.47 67.4996C122.447 67.4701 122.416 67.4282 122.375 67.3744C122.292 67.2668 122.172 67.1117 122.016 66.9139C121.703 66.5184 121.244 65.952 120.65 65.2541C119.463 63.8591 117.731 61.9344 115.538 59.7972C111.167 55.5371 104.894 50.3632 97.3916 46.8942C89.8704 43.4167 81.0152 41.6118 71.615 44.2817C62.2195 46.9503 52.5915 54.0007 43.3454 67.6179L46.6546 69.8649Z" fill="white"/>
<path d="M45.8264 97.3268C44.726 97.2526 43.7645 98.0866 43.6789 99.1895L42.2831 117.163C42.1974 118.266 43.02 119.22 44.1204 119.294C45.2208 119.369 46.1822 118.535 46.2679 117.432L47.5086 101.455L63.4478 102.53C64.5481 102.604 65.5096 101.77 65.5952 100.667C65.6809 99.564 64.8583 98.6098 63.7579 98.5356L45.8264 97.3268ZM119.637 92.2927C111.675 106.056 103.206 113.054 95.1531 116.042C87.1044 119.029 79.1666 118.125 72.0447 115.485C64.9037 112.837 58.6845 108.478 54.2215 104.737C51.9977 102.873 50.2287 101.177 49.0193 99.9527C48.4151 99.3406 47.9516 98.8471 47.6421 98.5099C47.4874 98.3414 47.3712 98.212 47.2952 98.1265C47.2573 98.0838 47.2294 98.052 47.2117 98.0318C47.2029 98.0218 47.1966 98.0146 47.193 98.0103C47.1911 98.0082 47.19 98.0069 47.1894 98.0063C47.1892 98.006 47.1893 98.0061 47.1891 98.0059C47.1894 98.0062 47.1898 98.0067 45.6713 99.3238C44.1528 100.641 44.1535 100.642 44.1545 100.643C44.155 100.644 44.1561 100.645 44.1571 100.646C44.1592 100.648 44.162 100.652 44.1654 100.656C44.1722 100.663 44.1817 100.674 44.1937 100.688C44.2179 100.716 44.2524 100.755 44.2972 100.805C44.3867 100.906 44.5171 101.051 44.6867 101.236C45.0259 101.606 45.5224 102.134 46.1629 102.783C47.4431 104.079 49.303 105.861 51.6372 107.818C56.2898 111.718 62.9019 116.378 70.6227 119.241C78.3627 122.11 87.3174 123.205 96.507 119.794C105.692 116.385 114.808 108.588 123.09 94.2724L119.637 92.2927Z" fill="white"/>
</svg>
