<svg width="168" height="168" viewBox="0 0 168 168" fill="none" xmlns="http://www.w3.org/2000/svg">
<rect width="168" height="168" rx="25" fill="#238287"/>
<g filter="url(#filter0_d_191_34)">
<rect width="56.7444" height="75.7431" rx="3" transform="matrix(0.999928 0.0119828 -0.0102882 0.999947 33.7793 29)" fill="white"/>
<rect x="0.148446" y="0.151789" width="56.4444" height="75.4431" rx="2.85" transform="matrix(0.999928 0.0119828 -0.0102882 0.999947 33.7809 28.9982)" stroke="black" stroke-width="0.3"/>
</g>
<line x1="45" y1="55.85" x2="78" y2="55.85" stroke="black" stroke-width="0.3"/>
<line x1="45" y1="62.85" x2="78" y2="62.85" stroke="black" stroke-width="0.3"/>
<line x1="45" y1="70.85" x2="78" y2="70.85" stroke="black" stroke-width="0.3"/>
<line x1="45" y1="76.85" x2="70" y2="76.85" stroke="black" stroke-width="0.3"/>
<g filter="url(#filter1_d_191_34)">
<rect width="56.7444" height="75.7431" rx="3" transform="matrix(0.999928 0.0119828 -0.0102882 0.999947 41.7793 39)" fill="white"/>
<rect x="0.098964" y="0.101193" width="56.5444" height="75.5431" rx="2.9" transform="matrix(0.999928 0.0119828 -0.0102882 0.999947 41.7803 38.9988)" stroke="black" stroke-width="0.2"/>
</g>
<line x1="53" y1="65.9" x2="86" y2="65.9" stroke="black" stroke-width="0.2"/>
<line x1="53" y1="72.9" x2="86" y2="72.9" stroke="black" stroke-width="0.2"/>
<line x1="53" y1="80.9" x2="86" y2="80.9" stroke="black" stroke-width="0.2"/>
<line x1="53" y1="86.9" x2="78" y2="86.9" stroke="black" stroke-width="0.2"/>
<g filter="url(#filter2_d_191_34)">
<rect width="56.7444" height="75.7431" rx="3" transform="matrix(0.999928 0.0119828 -0.0102882 0.999947 49.7793 49)" fill="white"/>
<rect x="0.098964" y="0.101193" width="56.5444" height="75.5431" rx="2.9" transform="matrix(0.999928 0.0119828 -0.0102882 0.999947 49.7803 48.9988)" stroke="black" stroke-width="0.2"/>
</g>
<line x1="61" y1="75.95" x2="94" y2="75.95" stroke="black" stroke-width="0.1"/>
<line x1="61" y1="82.95" x2="94" y2="82.95" stroke="black" stroke-width="0.1"/>
<line x1="61" y1="90.95" x2="94" y2="90.95" stroke="black" stroke-width="0.1"/>
<line x1="61" y1="96.95" x2="86" y2="96.95" stroke="black" stroke-width="0.1"/>
<g filter="url(#filter3_d_191_34)">
<rect width="56.7444" height="75.7431" rx="3" transform="matrix(0.999928 0.0119828 -0.0102882 0.999947 58.7793 63)" fill="white"/>
<rect x="0.098964" y="0.101193" width="56.5444" height="75.5431" rx="2.9" transform="matrix(0.999928 0.0119828 -0.0102882 0.999947 58.7803 62.9988)" stroke="black" stroke-width="0.2"/>
</g>
<line x1="70" y1="89.25" x2="103" y2="89.25" stroke="black" stroke-width="1.5"/>
<line x1="70" y1="96.25" x2="103" y2="96.25" stroke="black" stroke-width="1.5"/>
<line x1="70" y1="104.25" x2="103" y2="104.25" stroke="black" stroke-width="1.5"/>
<line x1="70" y1="110.25" x2="95" y2="110.25" stroke="black" stroke-width="1.5"/>
<path d="M134 29L141.217 41.5L126.783 41.5L134 29ZM134 74L132.75 74L132.75 40.25L134 40.25L135.25 40.25L135.25 74L134 74Z" fill="white"/>
<path d="M134 139L126.783 126.5L141.217 126.5L134 139ZM134 94L135.25 94L135.25 127.75L134 127.75L132.75 127.75L132.75 94L134 94Z" fill="white"/>
<defs>
<filter id="filter0_d_191_34" x="29.0308" y="29.0356" width="65.458" height="84.3477" filterUnits="userSpaceOnUse" color-interpolation-filters="sRGB">
<feFlood flood-opacity="0" result="BackgroundImageFix"/>
<feColorMatrix in="SourceAlpha" type="matrix" values="0 0 0 0 0 0 0 0 0 0 0 0 0 0 0 0 0 0 127 0" result="hardAlpha"/>
<feOffset dy="4"/>
<feGaussianBlur stdDeviation="2"/>
<feComposite in2="hardAlpha" operator="out"/>
<feColorMatrix type="matrix" values="0 0 0 0 0 0 0 0 0 0 0 0 0 0 0 0 0 0 0.25 0"/>
<feBlend mode="normal" in2="BackgroundImageFix" result="effect1_dropShadow_191_34"/>
<feBlend mode="normal" in="SourceGraphic" in2="effect1_dropShadow_191_34" result="shape"/>
</filter>
<filter id="filter1_d_191_34" x="37.0308" y="39.0356" width="65.458" height="84.3477" filterUnits="userSpaceOnUse" color-interpolation-filters="sRGB">
<feFlood flood-opacity="0" result="BackgroundImageFix"/>
<feColorMatrix in="SourceAlpha" type="matrix" values="0 0 0 0 0 0 0 0 0 0 0 0 0 0 0 0 0 0 127 0" result="hardAlpha"/>
<feOffset dy="4"/>
<feGaussianBlur stdDeviation="2"/>
<feComposite in2="hardAlpha" operator="out"/>
<feColorMatrix type="matrix" values="0 0 0 0 0 0 0 0 0 0 0 0 0 0 0 0 0 0 0.25 0"/>
<feBlend mode="normal" in2="BackgroundImageFix" result="effect1_dropShadow_191_34"/>
<feBlend mode="normal" in="SourceGraphic" in2="effect1_dropShadow_191_34" result="shape"/>
</filter>
<filter id="filter2_d_191_34" x="45.0308" y="49.0356" width="65.458" height="84.3477" filterUnits="userSpaceOnUse" color-interpolation-filters="sRGB">
<feFlood flood-opacity="0" result="BackgroundImageFix"/>
<feColorMatrix in="SourceAlpha" type="matrix" values="0 0 0 0 0 0 0 0 0 0 0 0 0 0 0 0 0 0 127 0" result="hardAlpha"/>
<feOffset dy="4"/>
<feGaussianBlur stdDeviation="2"/>
<feComposite in2="hardAlpha" operator="out"/>
<feColorMatrix type="matrix" values="0 0 0 0 0 0 0 0 0 0 0 0 0 0 0 0 0 0 0.25 0"/>
<feBlend mode="normal" in2="BackgroundImageFix" result="effect1_dropShadow_191_34"/>
<feBlend mode="normal" in="SourceGraphic" in2="effect1_dropShadow_191_34" result="shape"/>
</filter>
<filter id="filter3_d_191_34" x="54.0308" y="63.0356" width="65.458" height="84.3477" filterUnits="userSpaceOnUse" color-interpolation-filters="sRGB">
<feFlood flood-opacity="0" result="BackgroundImageFix"/>
<feColorMatrix in="SourceAlpha" type="matrix" values="0 0 0 0 0 0 0 0 0 0 0 0 0 0 0 0 0 0 127 0" result="hardAlpha"/>
<feOffset dy="4"/>
<feGaussianBlur stdDeviation="2"/>
<feComposite in2="hardAlpha" operator="out"/>
<feColorMatrix type="matrix" values="0 0 0 0 0 0 0 0 0 0 0 0 0 0 0 0 0 0 0.25 0"/>
<feBlend mode="normal" in2="BackgroundImageFix" result="effect1_dropShadow_191_34"/>
<feBlend mode="normal" in="SourceGraphic" in2="effect1_dropShadow_191_34" result="shape"/>
</filter>
</defs>
</svg>
