<svg width="168" height="168" viewBox="0 0 168 168" fill="none" xmlns="http://www.w3.org/2000/svg">
<rect width="112" height="112" rx="25" fill="#238287"/>
<rect x="168" y="168" width="112" height="112" rx="25" transform="rotate(-180 168 168)" fill="#238287"/>
<path d="M21 17.5C19.067 17.5 17.5 19.067 17.5 21L17.5 52.5C17.5 54.433 19.067 56 21 56C22.933 56 24.5 54.433 24.5 52.5L24.5 24.5L52.5 24.5C54.433 24.5 56 22.933 56 21C56 19.067 54.433 17.5 52.5 17.5L21 17.5ZM76.3758 71.426L23.4749 18.5252L18.5252 23.4749L71.426 76.3758L76.3758 71.426Z" fill="white"/>
<path d="M146.901 150.401C148.834 150.401 150.401 148.834 150.401 146.901L150.401 115.401C150.401 113.468 148.834 111.901 146.901 111.901C144.968 111.901 143.401 113.468 143.401 115.401L143.401 143.401L115.401 143.401C113.468 143.401 111.901 144.968 111.901 146.901C111.901 148.834 113.468 150.401 115.401 150.401L146.901 150.401ZM91.5251 96.4749L144.426 149.376L149.376 144.426L96.4749 91.5251L91.5251 96.4749Z" fill="white"/>
<line x1="56.3536" y1="98.6464" x2="68.8635" y2="111.156" stroke="#C8C8C8"/>
<line x1="69.3536" y1="85.6464" x2="81.8635" y2="98.1564" stroke="#C8C8C8"/>
<line x1="82.3536" y1="70.6464" x2="94.8635" y2="83.1564" stroke="#C8C8C8"/>
<line x1="94.3536" y1="57.6464" x2="106.864" y2="70.1564" stroke="#C8C8C8"/>
</svg>
