<svg width="168" height="168" viewBox="0 0 168 168" fill="none" xmlns="http://www.w3.org/2000/svg">
<rect width="168" height="168" rx="25" fill="#238287"/>
<path d="M69.75 78.75V65.75C69.746 61.7202 71.2394 57.8326 73.9405 54.8419C76.6415 51.8513 80.3574 49.9709 84.3669 49.5659C88.3763 49.161 92.3932 50.2602 95.6378 52.6503C98.8823 55.0404 101.123 58.5508 101.925 62.5M63.25 78.75H108.75C112.34 78.75 115.25 81.6602 115.25 85.25V108C115.25 111.59 112.34 114.5 108.75 114.5H63.25C59.6601 114.5 56.75 111.59 56.75 108V85.25C56.75 81.6602 59.6601 78.75 63.25 78.75Z" stroke="white" stroke-width="5" stroke-linecap="round" stroke-linejoin="round"/>
</svg>
