<svg width="168" height="168" viewBox="0 0 168 168" fill="none" xmlns="http://www.w3.org/2000/svg">
<rect width="168" height="168" rx="25" fill="#238287"/>
<path d="M99.084 28.5V51.3359H121.5V133.5H46.5V28.5H99.084Z" stroke="white" stroke-width="5"/>
<path d="M100 27.5168L122 50.5168" stroke="white" stroke-width="5"/>
<path opacity="0.5" d="M65.4629 91.0665L65.7159 74.5637L67.8288 73.9976L68.2037 80.2867L67.8007 97.5576L65.7028 98.1198L65.4629 91.0665ZM56.8414 76.9416L64.3406 91.0437L67.2423 97.7073L65.1595 98.2653L53.9437 77.7181L56.8414 76.9416ZM77.4973 87.5022L76.8693 71.5752L79.7822 70.7947L80.3577 94.193L78.2749 94.7511L77.4973 87.5022ZM68.1458 73.9126L76.4956 88.1103L79.8144 94.3386L77.7165 94.9007L68.898 80.1007L66.063 74.4707L68.1458 73.9126ZM83.9326 69.6826L86.755 68.9263L98.7544 84.9122L101.138 65.0723L103.976 64.3121L100.929 88.6809L98.7254 89.2714L83.9326 69.6826ZM83.012 69.9292L85.5023 69.262L89.5009 82.555L91.7979 91.1276L88.9001 91.9041L83.012 69.9292ZM102.391 64.7367L104.881 64.0694L110.769 86.0442L107.872 86.8207L105.574 78.2481L102.391 64.7367Z" fill="white"/>
<circle cx="122" cy="129" r="15" fill="white"/>
<rect x="120" y="119" width="4" height="20" rx="2" fill="#238287"/>
<rect x="112" y="127" width="20" height="4" rx="2" fill="#238287"/>
</svg>
