<svg width="168" height="168" viewBox="0 0 168 168" fill="none" xmlns="http://www.w3.org/2000/svg">
<rect width="112" height="112" rx="25" fill="#873323"/>
<rect x="168" y="168" width="112" height="112" rx="25" transform="rotate(-180 168 168)" fill="#D4AD40"/>
<path d="M76.7955 148V144.062L94.6932 118.392H76.6932V113.091H102.534V117.028L84.6534 142.699H102.636V148H76.7955ZM115.08 113.091V148H108.756V113.091H115.08ZM121.928 148V113.091H135.018C137.7 113.091 139.95 113.591 141.768 114.591C143.598 115.591 144.979 116.966 145.911 118.716C146.854 120.455 147.325 122.432 147.325 124.648C147.325 126.886 146.854 128.875 145.911 130.614C144.967 132.352 143.575 133.722 141.734 134.722C139.893 135.71 137.626 136.205 134.933 136.205H126.257V131.006H134.081C135.649 131.006 136.933 130.733 137.933 130.188C138.933 129.642 139.672 128.892 140.149 127.938C140.638 126.983 140.882 125.886 140.882 124.648C140.882 123.409 140.638 122.318 140.149 121.375C139.672 120.432 138.928 119.699 137.916 119.176C136.916 118.642 135.626 118.375 134.047 118.375H128.251V148H121.928Z" fill="white"/>
<path d="M10.4432 63V28.0909H23.5341C26.2159 28.0909 28.4659 28.5909 30.2841 29.5909C32.1136 30.5909 33.4943 31.9659 34.4261 33.7159C35.3693 35.4545 35.8409 37.4318 35.8409 39.6477C35.8409 41.8864 35.3693 43.875 34.4261 45.6136C33.483 47.3523 32.0909 48.7216 30.25 49.7216C28.4091 50.7102 26.142 51.2045 23.4489 51.2045H14.7727V46.0057H22.5966C24.1648 46.0057 25.4489 45.733 26.4489 45.1875C27.4489 44.642 28.1875 43.892 28.6648 42.9375C29.1534 41.983 29.3977 40.8864 29.3977 39.6477C29.3977 38.4091 29.1534 37.3182 28.6648 36.375C28.1875 35.4318 27.4432 34.6989 26.4318 34.1761C25.4318 33.642 24.142 33.375 22.5625 33.375H16.767V63H10.4432ZM53.1634 63H41.3338V28.0909H53.402C56.8679 28.0909 59.8452 28.7898 62.3338 30.1875C64.8338 31.5739 66.7543 33.5682 68.0952 36.1705C69.4361 38.7727 70.1065 41.8864 70.1065 45.5114C70.1065 49.1477 69.4304 52.2727 68.0781 54.8864C66.7372 57.5 64.7997 59.5057 62.2656 60.9034C59.7429 62.3011 56.7088 63 53.1634 63ZM47.6577 57.5284H52.8565C55.2884 57.5284 57.3168 57.0852 58.9418 56.1989C60.5668 55.3011 61.7884 53.9659 62.6065 52.1932C63.4247 50.4091 63.8338 48.1818 63.8338 45.5114C63.8338 42.8409 63.4247 40.625 62.6065 38.8636C61.7884 37.0909 60.5781 35.767 58.9759 34.892C57.3849 34.0057 55.4077 33.5625 53.044 33.5625H47.6577V57.5284ZM76.1151 63V28.0909H98.4787V33.392H82.4389V42.8693H96.9446V48.1705H82.4389V63H76.1151Z" fill="white"/>
<path d="M79.1328 77.0089C78.5854 76.9355 78.0822 77.3198 78.0089 77.8672L76.8136 86.7875C76.7402 87.3348 77.1245 87.8381 77.6719 87.9114C78.2193 87.9848 78.7225 87.6005 78.7959 87.0531L79.8584 79.1239L87.7875 80.1865C88.3349 80.2598 88.8381 79.8755 88.9114 79.3281C88.9848 78.7807 88.6005 78.2775 88.0531 78.2042L79.1328 77.0089ZM92.598 94.1585L79.7948 77.3931L78.2053 78.6069L91.0085 95.3723L92.598 94.1585Z" fill="white"/>
<line x1="10" y1="92.4103" x2="46.2817" y2="92.4103" stroke="white" stroke-width="3"/>
<line x1="10" y1="86.5" x2="56" y2="86.5" stroke="white" stroke-width="3"/>
<rect x="98" y="56" width="10" height="9" fill="white"/>
<rect x="108" y="65" width="10" height="10" fill="white"/>
<rect x="98" y="75" width="10" height="9" fill="white"/>
<rect x="108" y="85" width="10" height="9" fill="white"/>
<rect x="98" y="94" width="10" height="10" fill="white"/>
<rect x="108" y="104" width="10" height="9" fill="white"/>
</svg>
